<svg fill="none" height="100%" width="100%" viewBox="0 0 500 500" xmlns:xlink="http://www.w3.org/1999/xlink" xmlns="http://www.w3.org/2000/svg"><g id="i0"><g transform="translate(250,250)"><animateTransform repeatCount="indefinite" type="translate" attributeName="transform" dur="1.768s" begin="0s" calcMode="spline" values="250 250; 250 389.198; 250 389.198; 250 250; 250 250; 250 250" keyTimes="0; 0.283019; 0.339623; 0.54717; 1; 1" keySplines="0 0 1 1; 0 0 1 1; 0 0 1 1; 0 0 1 1; 0 0 1 1" fill="freeze" /><g transform="rotate(8.569) scale(0.732,0.732) translate(-203.661,106.5)"><g id="i1" transform="matrix(1,0,0,1,13.5,-106.5)"><ellipse ry="73.5" rx="73.5" cy="0" cx="0" stroke-width="10" stroke="#00c950" /></g></g></g></g><g id="i2"><g transform="translate(250,250)"><animateTransform repeatCount="indefinite" type="translate" attributeName="transform" dur="1.768s" begin="0s" calcMode="spline" values="250 250; 250 110.802; 250 110.802; 250 250; 250 250; 250 250" keyTimes="0; 0.283019; 0.339623; 0.54717; 1; 1" keySplines="0 0 1 1; 0 0 1 1; 0 0 1 1; 0 0 1 1; 0 0 1 1" fill="freeze" /><g transform="rotate(8.569) scale(0.732,0.732) translate(176.661,106.5)"><g id="i1" transform="matrix(1,0,0,1,13.5,-106.5)"><ellipse ry="73.5" rx="73.5" cy="0" cx="0" stroke-width="10" stroke="#00c950" /></g></g></g></g><g id="i3"><g transform="translate(250,250)"><animateTransform repeatCount="indefinite" type="translate" attributeName="transform" dur="1.768s" begin="0s" calcMode="spline" values="250 250; 110.802 250; 110.802 250; 250 250; 250 250; 250 250" keyTimes="0; 0.283019; 0.339623; 0.54717; 1; 1" keySplines="0 0 1 1; 0 0 1 1; 0 0 1 1; 0 0 1 1; 0 0 1 1" fill="freeze" /><g transform="rotate(-61.843) scale(0.732,0.732) translate(-13.5,-83.661)"><g id="i1" transform="matrix(1,0,0,1,13.5,-106.5)"><ellipse ry="73.5" rx="73.5" cy="0" cx="0" stroke-width="5" stroke="#00c950" fill="#00c950" /></g></g></g></g><g id="i4"><g transform="translate(250,250)"><animateTransform repeatCount="indefinite" type="translate" attributeName="transform" dur="1.768s" begin="0s" calcMode="spline" values="250 250; 389.198 250; 389.198 250; 250 250; 250 250; 250 250" keyTimes="0; 0.283019; 0.339623; 0.54717; 1; 1" keySplines="0 0 1 1; 0 0 1 1; 0 0 1 1; 0 0 1 1; 0 0 1 1" fill="freeze" /><g transform="rotate(-61.843) scale(0.732,0.732) translate(-13.5,296.661)"><g id="i1" transform="matrix(1,0,0,1,13.5,-106.5)"><ellipse ry="73.5" rx="73.5" cy="0" cx="0" stroke-width="5" stroke="#00c950" fill="#00c950" /></g></g></g></g><g opacity="0" id="i5"><g transform="translate(250,250)"><g transform="rotate(0)"><animateTransform repeatCount="indefinite" type="rotate" attributeName="transform" dur="1.768s" begin="0s" calcMode="spline" values="0; 90; 154.327; 240.311; 540; 540" keyTimes="0; 0.283019; 0.433962; 0.54717; 1; 1" keySplines="0 0 1 1; 0 0 1 1; 0 0 1 1; 0 0 1 1; 0 0 1 1" fill="freeze" /><g transform="scale(1.5,1.5) translate(-50,-50)" /></g></g></g></svg>